<?xml version="1.0" standalone="no"?>
<!DOCTYPE svg PUBLIC "-//W3C//DTD SVG 20010904//EN"
 "http://www.w3.org/TR/2001/REC-SVG-20010904/DTD/svg10.dtd">
<svg version="1.0" xmlns="http://www.w3.org/2000/svg"
 width="300.000000pt" height="300.000000pt" viewBox="0 0 300.000000 300.000000"
 preserveAspectRatio="xMidYMid meet">
<metadata>
Created by potrace 1.15, written by Peter Selinger 2001-2017
</metadata>
<g transform="translate(0.000000,300.000000) scale(0.100000,-0.100000)"
fill="#000000" stroke="none">
<path d="M495 2718 c-233 -35 -431 -70 -436 -76 -4 -4 -9 -54 -10 -112 l-4
-104 77 -38 c42 -20 82 -46 87 -57 8 -13 11 -270 11 -809 l0 -789 78 -26 c202
-71 422 -98 624 -79 200 19 332 72 448 179 167 155 239 359 226 643 -7 159
-25 244 -77 348 -73 149 -191 245 -354 287 -110 29 -313 20 -452 -21 l-23 -6
0 278 c0 226 -3 288 -16 336 l-17 58 -51 -1 c-28 -1 -78 -6 -111 -11z m479
-981 c53 -29 102 -95 123 -165 26 -82 25 -342 -1 -469 l-18 -93 -37 -10 c-49
-14 -238 -13 -300 2 l-51 11 0 368 0 368 58 6 c31 4 62 8 67 11 24 9 122 -8
159 -29z"/>
<path d="M1757 2048 c-2 -40 -15 -178 -27 -306 -13 -128 -21 -234 -19 -236 2
-2 44 -9 94 -15 l90 -11 103 103 102 102 220 3 220 3 -49 -83 c-45 -77 -120
-208 -547 -950 -152 -264 -154 -267 -154 -328 l0 -60 262 2 262 3 36 90 c21
50 58 140 83 200 25 61 154 373 287 695 l242 585 -16 126 c-9 69 -16 131 -16
138 0 8 -154 11 -584 11 l-583 0 -6 -72z"/>
</g>
</svg>
