<?xml version="1.0" standalone="no"?>
<!DOCTYPE svg PUBLIC "-//W3C//DTD SVG 20010904//EN"
 "http://www.w3.org/TR/2001/REC-SVG-20010904/DTD/svg10.dtd">
<svg version="1.0" xmlns="http://www.w3.org/2000/svg"
 width="256.000000pt" height="256.000000pt" viewBox="0 0 256.000000 256.000000"
 preserveAspectRatio="xMidYMid meet">
<metadata>
Created by potrace 1.15, written by Peter Selinger 2001-2017
</metadata>
<g transform="translate(0.000000,256.000000) scale(0.100000,-0.100000)"
fill="#000000" stroke="none">
<path d="M440 2343 c-14 -2 -114 -18 -222 -35 l-198 -31 0 -61 c0 -33 -3 -77
-6 -96 l-6 -35 72 -35 c47 -23 75 -43 81 -58 5 -13 9 -329 9 -702 l0 -678 78
-26 c229 -76 486 -91 677 -41 212 56 366 217 421 440 27 109 25 336 -4 438
-30 106 -64 170 -125 235 -87 91 -187 136 -335 148 -70 6 -196 -9 -279 -32
l-23 -6 0 239 c0 186 -3 251 -15 291 l-16 52 -42 -1 c-23 -1 -53 -4 -67 -6z
m399 -866 c97 -64 136 -269 96 -503 -22 -126 -20 -122 -73 -130 -69 -11 -191
-9 -239 5 l-43 12 0 314 0 315 28 6 c15 3 32 8 37 10 6 2 42 2 82 0 58 -2 80
-8 112 -29z"/>
<path d="M1510 1813 c0 -5 -11 -118 -25 -253 -14 -135 -25 -252 -25 -261 0
-13 18 -19 83 -27 l82 -11 90 88 90 89 187 5 188 6 -14 -27 c-8 -15 -154 -270
-325 -567 -301 -522 -311 -541 -311 -592 l0 -53 228 0 227 0 284 687 283 686
-11 81 c-6 45 -14 98 -17 119 l-6 37 -504 0 c-277 0 -504 -3 -504 -7z"/>
</g>
</svg>
