<?xml version="1.0" standalone="no"?>
<!DOCTYPE svg PUBLIC "-//W3C//DTD SVG 20010904//EN"
 "http://www.w3.org/TR/2001/REC-SVG-20010904/DTD/svg10.dtd">
<svg version="1.0" xmlns="http://www.w3.org/2000/svg"
 width="512.000000pt" height="512.000000pt" viewBox="0 0 512.000000 512.000000"
 preserveAspectRatio="xMidYMid meet">
<metadata>
Created by potrace 1.15, written by Peter Selinger 2001-2017
</metadata>
<g transform="translate(0.000000,512.000000) scale(0.100000,-0.100000)"
fill="#000000" stroke="none">
<path d="M860 4629 c-80 -11 -281 -42 -448 -69 -167 -28 -305 -50 -306 -50 -2
0 -6 -51 -10 -112 -3 -62 -9 -143 -12 -180 l-6 -67 123 -61 c68 -34 135 -72
149 -86 l25 -24 3 -1359 2 -1359 33 -12 c198 -73 364 -117 563 -152 175 -30
574 -33 729 -4 558 102 890 431 991 982 23 124 26 497 6 614 -68 387 -241 651
-518 786 -139 68 -258 95 -444 101 -180 6 -287 -5 -447 -47 -62 -17 -114 -30
-117 -30 -4 0 -6 209 -6 464 0 484 -4 541 -46 645 -16 41 -16 41 -68 40 -28 0
-116 -10 -196 -20z m693 -1614 c175 -37 281 -153 338 -370 22 -83 24 -109 24
-335 0 -212 -3 -262 -23 -373 -13 -70 -30 -149 -38 -176 l-14 -49 -66 -16
c-144 -36 -421 -30 -546 13 l-53 18 -3 631 -2 630 92 16 c165 28 204 30 291
11z"/>
<path d="M2976 3118 c-27 -271 -49 -504 -50 -517 -1 -24 1 -25 152 -43 l153
-19 175 170 c174 168 176 170 227 175 29 3 202 8 385 12 322 6 333 5 324 -13
-6 -10 -294 -510 -641 -1112 l-631 -1095 0 -103 0 -103 434 0 433 0 548 1328
c302 730 550 1337 553 1350 2 13 -8 122 -24 242 l-28 220 -981 0 -981 0 -48
-492z"/>
</g>
</svg>
