<?xml version="1.0" standalone="no"?>
<!DOCTYPE svg PUBLIC "-//W3C//DTD SVG 20010904//EN"
 "http://www.w3.org/TR/2001/REC-SVG-20010904/DTD/svg10.dtd">
<svg version="1.0" xmlns="http://www.w3.org/2000/svg"
 width="400.000000pt" height="400.000000pt" viewBox="0 0 400.000000 400.000000"
 preserveAspectRatio="xMidYMid meet">
<metadata>
Created by potrace 1.15, written by Peter Selinger 2001-2017
</metadata>
<g transform="translate(0.000000,400.000000) scale(0.100000,-0.100000)"
fill="#000000" stroke="none">
<path d="M720 3629 c-121 -14 -447 -66 -585 -92 l-60 -12 -8 -90 c-4 -50 -6
-115 -5 -145 l3 -54 95 -48 c52 -26 103 -57 112 -69 17 -20 18 -86 18 -1074 0
-875 2 -1054 14 -1064 30 -25 236 -86 416 -122 101 -21 143 -23 345 -23 248 0
328 12 484 71 202 76 352 206 455 394 102 187 145 455 117 734 -40 402 -238
660 -570 744 -127 32 -358 30 -496 -3 -55 -14 -108 -28 -117 -31 -15 -6 -17
24 -20 387 -3 382 -4 395 -27 451 -26 65 -19 63 -171 46z m557 -1299 c126 -55
194 -181 214 -397 12 -135 0 -324 -32 -484 l-21 -106 -52 -12 c-118 -28 -302
-24 -428 10 l-38 10 0 489 0 489 35 7 c152 28 249 27 322 -6z"/>
<path d="M2357 2823 c-3 -5 -8 -48 -11 -98 -4 -49 -13 -151 -21 -225 -45 -431
-49 -482 -35 -490 7 -4 64 -13 127 -20 l115 -13 137 136 136 135 294 7 294 7
-21 -36 c-12 -19 -126 -217 -253 -438 -128 -222 -344 -596 -481 -833 l-248
-430 0 -83 0 -82 346 2 347 3 32 80 c18 44 54 132 80 195 26 63 58 140 70 170
12 30 44 107 70 170 26 63 58 140 70 170 25 62 104 253 144 350 15 36 110 265
210 508 l183 444 -5 66 c-7 105 -28 265 -38 290 l-9 22 -764 0 c-421 0 -767
-3 -769 -7z"/>
</g>
</svg>
